<svg width="269" height="40" viewBox="0 0 269 40" fill="none" xmlns="http://www.w3.org/2000/svg">
<rect x="0.5" y="0.5" width="267" height="39" rx="5.5" fill="white" stroke="#E6E6E6"/>
<path opacity="0.2" d="M0.5 6C0.5 2.96243 2.96243 0.5 6 0.5H12.7537V39.5H6C2.96244 39.5 0.5 37.0376 0.5 34V6Z" fill="#59BD39" stroke="#E6E6E6"/>
<path opacity="0.1" d="M0.5 28.5H267.5V34C267.5 37.0376 265.038 39.5 262 39.5H5.99999C2.96243 39.5 0.5 37.0376 0.5 34V28.5Z" fill="#59BD39" stroke="#E6E6E6"/>
<path opacity="0.1" d="M267.5 11.5L0.5 11.5V6C0.5 2.96243 2.96243 0.5 6 0.5L262 0.5C265.038 0.5 267.5 2.96243 267.5 6V11.5Z" fill="#59BD39" stroke="#E6E6E6"/>
<path opacity="0.2" d="M255.5 0.5H262.254C265.291 0.5 267.754 2.96243 267.754 6V34C267.754 37.0376 265.291 39.5 262.254 39.5H255.5V0.5Z" fill="#59BD39" stroke="#E6E6E6"/>
<line opacity="0.5" y1="28.5" x2="268" y2="28.5" stroke="#59BD39" stroke-dasharray="2 2"/>
<line opacity="0.5" y1="11.5" x2="268" y2="11.5" stroke="#59BD39" stroke-dasharray="2 2"/>
<line opacity="0.5" x1="12.6484" y1="1.97883e-08" x2="12.6484" y2="40" stroke="#59BD39" stroke-dasharray="2 2"/>
<line opacity="0.5" x1="255.5" y1="1.97883e-08" x2="255.5" y2="40" stroke="#59BD39" stroke-dasharray="2 2"/>
<path d="M16.9357 17.8199C16.9357 17.6853 17.0113 17.5507 17.087 17.4835C17.314 17.2816 17.6923 17.2816 17.9192 17.4835L22.0805 21.3867L26.3173 17.4835C26.4686 17.2816 26.8469 17.2816 27.0739 17.4835C27.3009 17.6853 27.3009 18.0218 27.0739 18.2237L22.4587 22.5308C22.3831 22.5981 22.2318 22.6654 22.0805 22.6654C21.9291 22.6654 21.7778 22.5981 21.7022 22.5308L17.1627 18.2237C17.0113 18.0891 16.9357 17.9545 16.9357 17.8199Z" fill="#BDBDBD"/>
</svg>
