<svg width="40" height="40" viewBox="0 0 40 40" fill="none" xmlns="http://www.w3.org/2000/svg">
<g clip-path="url(#clip0_40_11539)">
<path fill-rule="evenodd" clip-rule="evenodd" d="M4.51363 19.351C4.34854 23.2899 5.69058 27.1437 8.2666 30.1281C10.8426 33.1125 14.459 35.0031 18.3798 35.4152C22.3006 35.8273 26.2311 34.7298 29.3713 32.3463C32.5115 29.9627 34.6254 26.4722 35.2829 22.585C35.9404 18.6979 35.0919 14.7062 32.9102 11.4225C30.7286 8.13887 27.3776 5.8099 23.5394 4.90965C19.8638 4.04753 16.0058 4.55774 12.6871 6.3337C12.4436 6.46399 12.1381 6.38286 12 6.14372C11.8619 5.90457 11.9436 5.59802 12.1868 5.46725C15.726 3.56438 19.8445 3.01587 23.7678 3.93607C27.8536 4.8944 31.4207 7.37362 33.7432 10.8692C36.0656 14.3647 36.9688 18.6138 36.2689 22.7518C35.569 26.8897 33.3187 30.6055 29.9759 33.1428C26.6331 35.6802 22.449 36.8484 18.2753 36.4097C14.1016 35.971 10.2518 33.9584 7.50961 30.7815C4.76739 27.6046 3.33876 23.5022 3.5145 19.3091C3.68325 15.2829 5.31909 11.4637 8.10363 8.56657C8.29498 8.36748 8.6122 8.37126 8.80541 8.56856C8.99861 8.76585 8.9946 9.08192 8.80363 9.28139C6.20062 12.0003 4.67173 15.5789 4.51363 19.351Z" fill="#1B1B1B"/>
<path d="M20 14L20 22" stroke="#59BD39" stroke-linecap="round" stroke-linejoin="round"/>
<path d="M20 25V26" stroke="#59BD39" stroke-linecap="round" stroke-linejoin="round"/>
</g>
<defs>
<clipPath id="clip0_40_11539">
<rect width="40" height="40" fill="white"/>
</clipPath>
</defs>
</svg>
