<svg width="40" height="40" viewBox="0 0 40 40" fill="none" xmlns="http://www.w3.org/2000/svg">
<path fill-rule="evenodd" clip-rule="evenodd" d="M26.6667 5H13.3333C8.73096 5 5 8.73096 5 13.3333V26.6667C5 31.269 8.73096 35 13.3333 35H26.6667C31.269 35 35 31.269 35 26.6667V13.3333C35 8.73096 31.269 5 26.6667 5Z" stroke="#757575" stroke-linecap="round" stroke-linejoin="round"/>
<path d="M21 24H20C15.029 24 11 21.985 11 19.5C11 17.015 15.029 15 20 15C24.971 15 29 17.015 29 19.5C29 21.06 27.411 22.434 25 23.241C27.411 22.434 29 21.06 29 19.5C29 17.015 24.971 15 20 15C15.029 15 11 17.015 11 19.5C11 21.985 15.029 24 20 24" stroke="#757575" stroke-linecap="round" stroke-linejoin="round"/>
<path d="M18.5 26.5L21 24L18.5 21.5" stroke="#757575" stroke-linecap="round" stroke-linejoin="round"/>
</svg>
