<svg width="36" height="36" viewBox="0 0 36 36" fill="none" xmlns="http://www.w3.org/2000/svg">
<g clip-path="url(#clip0_1_16)">
<path d="M30.2379 0H5.76214C2.5798 0 0 2.57979 0 5.76213V30.2379C0 33.4202 2.5798 36 5.76214 36H30.2379C33.4202 36 36 33.4202 36 30.2379V5.76213C36 2.57979 33.4202 0 30.2379 0Z" fill="black"/>
<path d="M26.2961 9.12134H18.568L18.5146 11.9854H26.6214C28.966 11.9854 30.4369 13.0534 30.4369 15.3835C30.4369 16.9806 29.5728 18.7815 26.301 18.7815H22.8447L22.932 13.7087L0 10.1796V12.534L20.1116 15.631V16.2767H3.96116V18.6068H20.0582V19.1165L0.00970896 23.5485V25.932L20.0146 21.5097V22.034L10.8301 25.1602L11.5874 27.3641L19.9563 24.4903L19.8981 27.6602H22.6893L22.7961 21.5728H26.267C31.1214 21.5728 33.3155 18.5388 33.3155 15.3689C33.3058 11.9854 31.0437 9.12134 26.2961 9.12134Z" fill="white"/>
</g>
<defs>
<clipPath id="clip0_1_16">
<rect width="36" height="36" fill="white"/>
</clipPath>
</defs>
</svg>
