<svg width="269" height="72" viewBox="0 0 269 72" fill="none" xmlns="http://www.w3.org/2000/svg">
<rect x="0.5" y="0.5" width="267" height="71" rx="5.5" fill="white" stroke="#E6E6E6"/>
<path opacity="0.2" d="M0 27H13.2985V72H5.99999C2.68629 72 0 69.3137 0 66V27Z" fill="#59BD39"/>
<path opacity="0.2" d="M255 27H268.299V66C268.299 69.3137 265.612 72 262.299 72H255V27Z" fill="#59BD39"/>
<path opacity="0.1" d="M0 60H268V66C268 69.3137 265.314 72 262 72H5.99999C2.68629 72 0 69.3137 0 66V60Z" fill="#59BD39"/>
<path opacity="0.1" d="M0 27H268V39H0V27Z" fill="#59BD39"/>
<path d="M15.3327 12.8199C15.3327 12.6853 15.4012 12.5507 15.4697 12.4835C15.6752 12.2816 16.0177 12.2816 16.2232 12.4835L19.9908 16.3867L23.8269 12.4835C23.9639 12.2816 24.3064 12.2816 24.5119 12.4835C24.7174 12.6853 24.7174 13.0218 24.5119 13.2237L20.3333 17.5308C20.2648 17.5981 20.1278 17.6654 19.9908 17.6654C19.8538 17.6654 19.7168 17.5981 19.6483 17.5308L15.5382 13.2237C15.4012 13.0891 15.3327 12.9545 15.3327 12.8199Z" fill="#BDBDBD"/>
<line opacity="0.5" y1="60.5" x2="268" y2="60.5" stroke="#59BD39" stroke-dasharray="2 2"/>
<line opacity="0.5" y1="38.5" x2="268" y2="38.5" stroke="#59BD39" stroke-dasharray="2 2"/>
<line opacity="0.5" y1="27.5" x2="268" y2="27.5" stroke="#59BD39" stroke-dasharray="2 2"/>
<path opacity="0.5" d="M13 27L13 72" stroke="#59BD39" stroke-dasharray="2 2"/>
<path opacity="0.5" d="M255 27L255 72" stroke="#59BD39" stroke-dasharray="2 2"/>
</svg>
