<svg width="28" height="32" viewBox="0 0 28 32" fill="none" xmlns="http://www.w3.org/2000/svg">
<g id="Group">
<path id="Path" fill-rule="evenodd" clip-rule="evenodd" d="M25.8688 6.64667L21.6866 2.46447C20.7489 1.52679 19.4772 1 18.1511 1H5.66663C2.9052 1 0.666626 3.23858 0.666626 6V26C0.666626 28.7614 2.9052 31 5.66663 31H22.3333C25.0947 31 27.3333 28.7614 27.3333 26V10.1822C27.3333 8.85611 26.8065 7.58434 25.8688 6.64667V6.64667Z" stroke="#757575" stroke-linecap="round" stroke-linejoin="round"/>
<path id="Path_2" d="M14 19.3333V13.5C14 12.1193 15.1193 11 16.5 11V11C17.8807 11 19 12.1193 19 13.5V19.3333C19 22.0948 16.7614 24.3333 14 24.3333V24.3333C11.2386 24.3333 9 22.0948 9 19.3333V14.3333" stroke="#757575" stroke-linecap="round" stroke-linejoin="round"/>
</g>
</svg>
