<svg width="81" height="80" viewBox="0 0 81 80" fill="none" xmlns="http://www.w3.org/2000/svg">
<path d="M46.5125 33.9926C49.8303 37.3105 49.8303 42.6966 46.5125 46.0201C43.1946 49.338 37.8085 49.338 34.485 46.0201C31.1671 42.7023 31.1671 37.3161 34.485 33.9926C37.8085 30.6691 43.1918 30.6691 46.5125 33.9926" stroke="#59BD39" stroke-linecap="round" stroke-linejoin="round"/>
<path d="M40.5 59.8327C30.0422 59.8327 20.5562 54.1915 16.2637 45.4167V45.4167C15.4307 43.7138 15 41.8665 15 39.9994C15 38.1322 15.4307 36.2848 16.2637 34.582V34.582C20.5562 25.8072 30.0422 20.166 40.5 20.166C50.9578 20.166 60.4438 25.8072 64.7363 34.582V34.582C65.5693 36.2848 66 38.1322 66 39.9994" stroke="#1B1B1B" stroke-linecap="round" stroke-linejoin="round"/>
<path d="M63.1665 51.333L54.6665 59.833" stroke="#1B1B1B" stroke-linecap="round" stroke-linejoin="round"/>
<path d="M54.6665 51.333L63.1665 59.833" stroke="#1B1B1B" stroke-linecap="round" stroke-linejoin="round"/>
</svg>
