<svg width="40" height="40" viewBox="0 0 40 40" fill="none" xmlns="http://www.w3.org/2000/svg">
<path d="M30 11.6667V8.33333C30.0002 7.4492 29.6491 6.60122 29.024 5.97604C28.3988 5.35087 27.5508 4.99976 26.6667 5H8.33333C7.4492 4.99976 6.60122 5.35087 5.97604 5.97604C5.35087 6.60122 4.99976 7.4492 5 8.33333V16.6667C4.99976 17.5508 5.35087 18.3988 5.97604 19.024C6.60122 19.6491 7.4492 20.0002 8.33333 20H11.6667" stroke="#757575" stroke-linecap="round" stroke-linejoin="round"/>
<path fill-rule="evenodd" clip-rule="evenodd" d="M31.667 35.0003H15.0003C13.1594 35.0003 11.667 33.5079 11.667 31.667V15.0003C11.667 13.1594 13.1594 11.667 15.0003 11.667H31.667C33.5079 11.667 35.0003 13.1594 35.0003 15.0003V31.667C35.0003 33.5079 33.5079 35.0003 31.667 35.0003Z" stroke="#757575" stroke-linecap="round" stroke-linejoin="round"/>
<path d="M25.833 26.6663H29.1663" stroke="#757575" stroke-linecap="round" stroke-linejoin="round"/>
<path d="M17.5 26.506L18.6063 27.5L20.8333 25.5" stroke="#757575" stroke-linecap="round" stroke-linejoin="round"/>
<path d="M25.6689 20.0003H29.0023" stroke="#757575" stroke-linecap="round" stroke-linejoin="round"/>
<path d="M17.3359 19.839L18.4422 20.833L20.6693 18.833" stroke="#757575" stroke-linecap="round" stroke-linejoin="round"/>
</svg>
