<svg width="268" height="40" viewBox="0 0 268 40" fill="none" xmlns="http://www.w3.org/2000/svg">
<rect x="0.5" y="0.5" width="267" height="39" rx="5.5" fill="white" stroke="#E6E6E6"/>
<path opacity="0.2" d="M29 0H41V40H29V0Z" fill="#59BD39"/>
<path opacity="0.2" d="M225.82 0H239.074V40H225.82V0Z" fill="#59BD39"/>
<path d="M15.3327 17.8199C15.3327 17.6853 15.4012 17.5507 15.4697 17.4835C15.6752 17.2816 16.0177 17.2816 16.2232 17.4835L19.9908 21.3867L23.8269 17.4835C23.9639 17.2816 24.3064 17.2816 24.5119 17.4835C24.7174 17.6853 24.7174 18.0218 24.5119 18.2237L20.3333 22.5308C20.2648 22.5981 20.1278 22.6654 19.9908 22.6654C19.8538 22.6654 19.7168 22.5981 19.6483 22.5308L15.5382 18.2237C15.4012 18.0891 15.3327 17.9545 15.3327 17.8199Z" fill="#BDBDBD"/>
<path d="M243.333 17.8199C243.333 17.6853 243.401 17.5507 243.47 17.4835C243.675 17.2816 244.018 17.2816 244.223 17.4835L247.991 21.3867L251.827 17.4835C251.964 17.2816 252.306 17.2816 252.512 17.4835C252.717 17.6853 252.717 18.0218 252.512 18.2237L248.333 22.5308C248.265 22.5981 248.128 22.6654 247.991 22.6654C247.854 22.6654 247.717 22.5981 247.648 22.5308L243.538 18.2237C243.401 18.0891 243.333 17.9545 243.333 17.8199Z" fill="#BDBDBD"/>
<path opacity="0.5" d="M41 0L41 40" stroke="#59BD39" stroke-dasharray="2 2"/>
<path opacity="0.5" d="M29 0L29 40" stroke="#59BD39" stroke-dasharray="2 2"/>
<path opacity="0.5" d="M239 0L239 40" stroke="#59BD39" stroke-dasharray="2 2"/>
<path opacity="0.5" d="M226 0L226 40" stroke="#59BD39" stroke-dasharray="2 2"/>
</svg>
