<svg width="80" height="80" viewBox="0 0 80 80" fill="none" xmlns="http://www.w3.org/2000/svg">
<path d="M46.0123 33.9932C49.3302 37.311 49.3302 42.6972 46.0123 46.0207C42.6945 49.3385 37.3083 49.3385 33.9848 46.0207C30.667 42.7028 30.667 37.3167 33.9848 33.9932C37.3083 30.6697 42.6917 30.6697 46.0123 33.9932" stroke="#59BD39" stroke-linecap="round" stroke-linejoin="round"/>
<path d="M40 59.8332C29.5422 59.8332 20.0562 54.192 15.7637 45.4172V45.4172C14.9307 43.7143 14.5 41.867 14.5 39.9998C14.5 38.1327 14.9307 36.2853 15.7637 34.5825V34.5825C20.0562 25.8077 29.5422 20.1665 40 20.1665C50.4578 20.1665 59.9438 25.8077 64.2363 34.5825V34.5825C65.0693 36.2853 65.5 38.1327 65.5 39.9998" stroke="#1B1B1B" stroke-linecap="round" stroke-linejoin="round"/>
<path d="M62.6666 51.3332L54.1666 59.8332" stroke="#1B1B1B" stroke-linecap="round" stroke-linejoin="round"/>
<path d="M54.1666 51.3332L62.6666 59.8332" stroke="#1B1B1B" stroke-linecap="round" stroke-linejoin="round"/>
</svg>
