<svg width="71" height="71" viewBox="0 0 71 71" fill="none" xmlns="http://www.w3.org/2000/svg">
<g id="Group">
<path id="Path" d="M23.2389 21.3845C23.6125 21.759 23.6119 22.3655 23.2376 22.7393C22.8633 23.1132 22.2568 23.113 21.8828 22.7389C21.5087 22.3648 21.5085 21.7584 21.8823 21.384C22.2562 21.0097 22.8626 21.0091 23.2372 21.3828L23.2389 21.3845" stroke="#ABB6C3" stroke-linecap="round" stroke-linejoin="round"/>
<path id="Path_2" d="M70.4802 28.241C58.9559 26.4695 47.277 30.2937 39.0324 38.5383C30.7878 46.7829 26.9637 58.4617 28.7352 69.986" stroke="#ABB6C3" stroke-linecap="round" stroke-linejoin="round"/>
<path id="Path_3" fill-rule="evenodd" clip-rule="evenodd" d="M51.3102 0.978394H20.6435C10.0581 0.978394 1.47687 9.5596 1.47687 20.1451V50.8117C1.47687 61.3972 10.0581 69.9784 20.6435 69.9784H51.3102C61.8957 69.9784 70.4769 61.3972 70.4769 50.8117V20.1451C70.4769 9.5596 61.8957 0.978394 51.3102 0.978394Z" stroke="#ABB6C3" stroke-linecap="round" stroke-linejoin="round"/>
</g>
</svg>
