<svg width="296" height="74" viewBox="0 0 296 74" fill="none" xmlns="http://www.w3.org/2000/svg">
<mask id="path-1-inside-1_125_2899" fill="white">
<path fill-rule="evenodd" clip-rule="evenodd" d="M4 0C1.79086 0 0 1.79086 0 4V29V30V70C0 72.2091 1.79086 74 4 74H292C294.209 74 296 72.2091 296 70V33C296 30.7909 294.209 29 292 29H86V4C86 1.79086 84.2091 0 82 0H4Z"/>
</mask>
<path fill-rule="evenodd" clip-rule="evenodd" d="M4 0C1.79086 0 0 1.79086 0 4V29V30V70C0 72.2091 1.79086 74 4 74H292C294.209 74 296 72.2091 296 70V33C296 30.7909 294.209 29 292 29H86V4C86 1.79086 84.2091 0 82 0H4Z" fill="white"/>
<path d="M86 29H85V30H86V29ZM1 4C1 2.34315 2.34315 1 4 1V-1C1.23858 -1 -1 1.23858 -1 4H1ZM1 29V4H-1V29H1ZM1 30V29H-1V30H1ZM1 70V30H-1V70H1ZM4 73C2.34314 73 1 71.6569 1 70H-1C-1 72.7614 1.23857 75 4 75V73ZM292 73H4V75H292V73ZM295 70C295 71.6569 293.657 73 292 73V75C294.761 75 297 72.7614 297 70H295ZM295 33V70H297V33H295ZM292 30C293.657 30 295 31.3431 295 33H297C297 30.2386 294.761 28 292 28V30ZM86 30H292V28H86V30ZM85 4V29H87V4H85ZM82 1C83.6569 1 85 2.34315 85 4H87C87 1.23857 84.7614 -1 82 -1V1ZM4 1H82V-1H4V1Z" fill="#EFEFEF" mask="url(#path-1-inside-1_125_2899)"/>
<path opacity="0.1" d="M282.746 29H292C294.209 29 296 30.7909 296 33V70C296 72.2091 294.209 74 292 74H282.746V29Z" fill="#59BD39"/>
<line opacity="0.2" y1="62.5" x2="293.791" y2="62.5" stroke="#59BD39" stroke-dasharray="2 2"/>
<path opacity="0.2" d="M1 29.5H292.582" stroke="#59BD39" stroke-dasharray="2 2"/>
<line opacity="0.2" y1="41.5" x2="293.791" y2="41.5" stroke="#59BD39" stroke-dasharray="2 2"/>
<path opacity="0.1" d="M0 62H296V70C296 72.2091 294.209 74 292 74H4C1.79086 74 0 72.2091 0 70V62Z" fill="#59BD39"/>
<path opacity="0.1" d="M0 29H292C294.209 29 296 30.7909 296 33V42H0V29Z" fill="#59BD39"/>
<path opacity="0.2" d="M282.746 29L282.746 74" stroke="#59BD39" stroke-dasharray="2 2"/>
<path opacity="0.2" d="M13.2538 29L13.2538 74" stroke="#59BD39" stroke-dasharray="2 2"/>
<path opacity="0.1" d="M0 29H13.2537V74H4C1.79086 74 0 72.2091 0 70V29Z" fill="#59BD39"/>
</svg>
