<svg width="297" height="72" viewBox="0 0 297 72" fill="none" xmlns="http://www.w3.org/2000/svg">
<mask id="path-1-inside-1_125_2867" fill="white">
<path d="M1 35H293C295.209 35 297 36.7909 297 39V68C297 70.2091 295.209 72 293 72H5C2.79086 72 1 70.2091 1 68V35Z"/>
</mask>
<path d="M1 35V34H0V35H1ZM1 36H293V34H1V36ZM296 39V68H298V39H296ZM293 71H5V73H293V71ZM2 68V35H0V68H2ZM5 71C3.34314 71 2 69.6569 2 68H0C0 70.7614 2.23857 73 5 73V71ZM296 68C296 69.6569 294.657 71 293 71V73C295.761 73 298 70.7614 298 68H296ZM293 36C294.657 36 296 37.3431 296 39H298C298 36.2386 295.761 34 293 34V36Z" fill="#E6E6E6" mask="url(#path-1-inside-1_125_2867)"/>
<mask id="path-3-inside-2_125_2867" fill="white">
<path d="M1 4C1 1.79086 2.79086 0 5 0H83C85.2091 0 87 1.79086 87 4V36H1V4Z"/>
</mask>
<path d="M1 4C1 1.79086 2.79086 0 5 0H83C85.2091 0 87 1.79086 87 4V36H1V4Z" fill="white"/>
<path d="M0 4C0 1.23858 2.23858 -1 5 -1H83C85.7614 -1 88 1.23858 88 4H86C86 2.34315 84.6569 1 83 1H5C3.34315 1 2 2.34315 2 4H0ZM87 36H1H87ZM0 36V4C0 1.23858 2.23858 -1 5 -1V1C3.34315 1 2 2.34315 2 4V36H0ZM83 -1C85.7614 -1 88 1.23858 88 4V36H86V4C86 2.34315 84.6569 1 83 1V-1Z" fill="#E6E6E6" mask="url(#path-3-inside-2_125_2867)"/>
<path opacity="0.1" d="M0 3C0 1.34315 1.34315 0 3 0H83C84.6568 0 86 1.34315 86 3V12H0V3Z" fill="#59BD39"/>
<path opacity="0.1" d="M1 24H87V36H1V24Z" fill="#59BD39"/>
<path opacity="0.1" d="M75 0H84C85.6569 0 87 1.34315 87 3V36H75V0Z" fill="#59BD39"/>
<path opacity="0.2" d="M75.418 0L75.418 17.7692L75.4179 35.5385" stroke="#59BD39" stroke-dasharray="2 2"/>
<path opacity="0.1" d="M1 3C1 1.34315 2.34315 0 4 0H13V36H1V3Z" fill="#59BD39"/>
<path opacity="0.2" d="M12.8358 0L12.8358 36" stroke="#59BD39" stroke-dasharray="2 2"/>
<path opacity="0.2" d="M1 12L86.5 12" stroke="#59BD39" stroke-dasharray="2 2"/>
<path opacity="0.2" d="M1 25L86.5 25" stroke="#59BD39" stroke-dasharray="2 2"/>
</svg>
