<svg width="268" height="64" viewBox="0 0 268 64" fill="none" xmlns="http://www.w3.org/2000/svg">
<rect x="0.5" y="0.5" width="267" height="39" rx="5.5" fill="white" stroke="#E9EBF0"/>
<path d="M257.821 24.6666C257.687 24.6666 257.552 24.5981 257.485 24.5296C257.283 24.3241 257.283 23.9816 257.485 23.7761L261.388 20.0085L257.485 16.1724C257.283 16.0354 257.283 15.6929 257.485 15.4874C257.687 15.2819 258.023 15.2819 258.225 15.4874L262.532 19.666C262.599 19.7345 262.667 19.8715 262.667 20.0085C262.667 20.1455 262.599 20.2825 262.532 20.351L258.225 24.4611C258.09 24.5981 257.956 24.6666 257.821 24.6666Z" fill="#AEB6BF"/>
<path d="M10.1787 15.3334C10.3133 15.3334 10.4479 15.4019 10.5152 15.4704C10.7171 15.6759 10.7171 16.0184 10.5152 16.2239L6.61198 19.9915L10.5152 23.8276C10.7171 23.9646 10.7171 24.3071 10.5152 24.5126C10.3133 24.7181 9.97686 24.7181 9.77496 24.5126L5.46792 20.334C5.40062 20.2655 5.33332 20.1285 5.33332 19.9915C5.33332 19.8545 5.40062 19.7175 5.46792 19.649L9.77496 15.5389C9.90956 15.4019 10.0442 15.3334 10.1787 15.3334Z" fill="#AEB6BF"/>
<path opacity="0.4" d="M16 0H28V40H16V0Z" fill="#DAF4EE"/>
<path opacity="0.4" d="M240 0H252V40H240V0Z" fill="#DAF4EE"/>
<line opacity="0.2" x1="27.5" y1="2.18557e-08" x2="27.5" y2="40" stroke="#01B075" stroke-dasharray="2 2"/>
<line opacity="0.2" x1="16.5" y1="2.18557e-08" x2="16.5" y2="40" stroke="#01B075" stroke-dasharray="2 2"/>
<line opacity="0.2" x1="240.5" y1="2.18557e-08" x2="240.5" y2="40" stroke="#01B075" stroke-dasharray="2 2"/>
<line opacity="0.2" x1="251.5" y1="2.18557e-08" x2="251.5" y2="40" stroke="#01B075" stroke-dasharray="2 2"/>
<path opacity="0.3" d="M268 56L0 56V44L268 44V56Z" fill="#DAF4EE"/>
<line opacity="0.2" y1="55.5" x2="266" y2="55.5" stroke="#01B075" stroke-dasharray="2 2"/>
<line opacity="0.2" y1="44.5" x2="266" y2="44.5" stroke="#01B075" stroke-dasharray="2 2"/>
<circle cx="126" cy="62" r="2" fill="#E9EBF0"/>
<circle cx="134" cy="62" r="2" fill="#01B075"/>
<circle cx="142" cy="62" r="2" fill="#E9EBF0"/>
</svg>
