<svg width="24" height="24" viewBox="0 0 24 24" fill="none" xmlns="http://www.w3.org/2000/svg">
<path fill-rule="evenodd" clip-rule="evenodd" d="M12 23V23C5.92433 23 1 18.0757 1 12V12C1 5.92433 5.92433 1 12 1V1C18.0757 1 23 5.92433 23 12V12C23 18.0757 18.0757 23 12 23Z" stroke="#736EEF" stroke-width="1.5" stroke-linecap="round" stroke-linejoin="round"/>
<path d="M11.9996 18.1111V12H10.7773" stroke="#736EEF" stroke-width="1.5" stroke-linecap="square" stroke-linejoin="round"/>
<path d="M11.6929 7.11073C11.5242 7.11073 11.3873 7.24762 11.3886 7.41629C11.3886 7.58495 11.5255 7.72184 11.6941 7.72184C11.8628 7.72184 11.9997 7.58495 11.9997 7.41629C11.9997 7.24762 11.8628 7.11073 11.6929 7.11073" stroke="#736EEF" stroke-width="1.5" stroke-linecap="round" stroke-linejoin="round"/>
</svg>
