<svg width="32" height="32" viewBox="0 0 32 32" fill="none" xmlns="http://www.w3.org/2000/svg">
<path fill-rule="evenodd" clip-rule="evenodd" d="M16 28V28C9.372 28 4 22.628 4 16V16C4 9.372 9.372 4 16 4V4C22.628 4 28 9.372 28 16V16C28 22.628 22.628 28 16 28Z" stroke="#736EEF" stroke-width="1.5" stroke-linecap="round" stroke-linejoin="round"/>
<path d="M16 22.6667V16H14.6666" stroke="#736EEF" stroke-width="1.5" stroke-linecap="round" stroke-linejoin="round"/>
<path d="M15.6653 10.6667C15.4813 10.6667 15.332 10.816 15.3333 11C15.3333 11.184 15.4827 11.3334 15.6667 11.3334C15.8507 11.3334 16 11.184 16 11C16 10.816 15.8507 10.6667 15.6653 10.6667" stroke="#736EEF" stroke-width="1.5" stroke-linecap="round" stroke-linejoin="round"/>
</svg>
