<svg width="40" height="40" viewBox="0 0 40 40" fill="none" xmlns="http://www.w3.org/2000/svg">
<path d="M22.5 16.6667H18.3333C14.1912 16.6667 10.8333 20.0245 10.8333 24.1667V24.1667C10.8333 26.1558 11.6235 28.0634 13.03 29.47C14.4365 30.8765 16.3442 31.6667 18.3333 31.6667H27.5C31.6421 31.6667 35 28.3088 35 24.1667V24.1667C34.997 22.5872 34.4915 21.0497 33.5567 19.7767" stroke="#757575" stroke-linecap="round" stroke-linejoin="round"/>
<path d="M17.5 23.3333H21.6667C25.8088 23.3333 29.1667 19.9755 29.1667 15.8333V15.8333C29.1667 11.6912 25.8088 8.33333 21.6667 8.33333H12.5C8.35786 8.33333 5 11.6912 5 15.8333H5C5.00295 17.4128 5.50845 18.9503 6.44333 20.2233" stroke="#757575" stroke-linecap="round" stroke-linejoin="round"/>
</svg>
