<svg width="192" height="80" viewBox="0 0 192 80" fill="none" xmlns="http://www.w3.org/2000/svg">
<path d="M46.4431 12H8.85021C3.96238 12 0 15.9587 0 20.842V58.4001C0 63.2834 3.96238 67.2422 8.85021 67.2422H46.4431C51.331 67.2422 55.2934 63.2834 55.2934 58.4001V20.842C55.2934 15.9587 51.331 12 46.4431 12Z" fill="black"/>
<path d="M40.3889 25.9968H28.519L28.437 30.3918H40.8884C44.4897 30.3918 46.7488 32.0306 46.7488 35.6061C46.7488 38.0568 45.4217 40.8204 40.3964 40.8204H35.0877L35.2219 33.0362L0 27.6207V31.2335L30.89 35.986V36.9767H6.08406V40.5523H30.808V41.3344L0.0149122 48.1354V51.7929L30.7409 45.0068V45.8113L16.6342 50.6085L17.7974 53.9903L30.6514 49.5805L30.5619 54.4448H34.8491L35.0132 45.1036H40.3442C47.8001 45.1036 51.1702 40.448 51.1702 35.5838C51.1553 30.3918 47.6808 25.9968 40.3889 25.9968Z" fill="white"/>
<path d="M131.955 49.0219C133.211 49.0049 134.461 48.85 135.683 48.5601L135.094 44.8356C134.066 45.0813 133.012 45.2063 131.955 45.208C129.241 45.208 127.481 44.0683 127.481 40.8205L127.601 34.1537H135.236L135.303 30.4291H127.712L127.839 23.4717H123.738L123.425 40.6641C123.35 41.7989 123.509 42.937 123.894 44.0073C124.279 45.0776 124.881 46.057 125.662 46.8841C127.138 48.3664 129.323 49.0219 131.955 49.0219Z" fill="black"/>
<path d="M114.053 34.1387H121.263L121.33 30.3844H109.967L109.647 48.8432H113.8L114.053 34.1387Z" fill="black"/>
<path d="M166.722 30.3844H170.823L170.502 48.8432H166.401L166.573 30.3919H166.722V30.3844ZM166.841 23.427L166.767 27.5985H170.875L170.942 23.427H166.841Z" fill="black"/>
<path d="M162.957 44.5153H158.632L158.558 48.8432H162.882L162.957 44.5153Z" fill="black"/>
<path d="M96.7852 49.1262C98.5757 49.1892 100.327 48.5927 101.706 47.4502H102.116V48.8432H106.329L106.657 30.3844H102.4V31.7476H102.064C100.663 30.6313 98.9204 30.0291 97.1282 30.0418C92.0358 29.9524 87.8083 33.3566 87.7039 39.4201C87.5995 45.4836 91.6928 49.1262 96.7852 49.1262ZM91.9463 39.4424C91.9463 37.5131 92.759 33.8557 97.3444 33.9376C101.117 33.9972 102.608 36.4852 102.564 39.6287C102.519 42.7722 100.931 45.1931 97.158 45.1335C92.5651 45.0665 91.909 41.3792 91.9463 39.4574V39.4424Z" fill="black"/>
<path d="M76.9226 30.0343C75.1328 29.9762 73.3832 30.5721 72.0016 31.7104H71.5916V30.3248H67.3417L66.8794 56.5455H71.1293L71.2859 47.4129H71.6288C73.0305 48.5287 74.7726 49.1308 76.5647 49.1188C81.6496 49.2082 85.8772 45.7965 85.9816 39.733C86.0859 33.6694 82.015 30.0343 76.9226 30.0343ZM81.7689 39.7181C81.7317 41.6399 80.9488 45.3049 76.3634 45.2229C72.5907 45.1559 71.0995 42.6754 71.1442 39.5319C71.1889 36.3884 72.7696 33.96 76.5423 34.027C81.1426 34.1015 81.7988 37.7888 81.7689 39.7106V39.7181Z" fill="black"/>
<path d="M145.607 49.1262C147.384 49.1886 149.121 48.5916 150.483 47.4502H150.938V48.8432H155.188L155.508 30.3844H151.258V31.7476H150.915C149.516 30.6286 147.772 30.0261 145.98 30.0418C140.895 29.9524 136.667 33.3566 136.563 39.4201C136.458 45.4836 140.514 49.1262 145.607 49.1262ZM140.76 39.4424C140.76 37.5131 141.581 33.8557 146.166 33.9376C149.939 33.9972 151.43 36.4852 151.385 39.6287C151.34 42.7722 149.752 45.1931 145.98 45.1335C141.372 45.0665 140.731 41.3792 140.76 39.4574V39.4424Z" fill="black"/>
<path d="M182.38 49.1262C187.599 49.2156 191.893 45.804 191.998 39.7479C192.102 33.6918 187.912 30.0641 182.715 30.0641C177.496 29.9747 173.209 33.3864 173.097 39.4499C172.985 45.5134 177.16 49.1262 182.38 49.1262ZM177.205 39.4425C177.205 37.4685 178.025 33.7142 182.648 33.7961C186.443 33.8631 187.949 36.4107 187.867 39.6361C187.785 42.8616 186.227 45.3496 182.424 45.2825C177.794 45.1783 177.16 41.4537 177.16 39.4499L177.205 39.4425Z" fill="black"/>
</svg>
