<svg width="334" height="321" viewBox="0 0 334 321" fill="none" xmlns="http://www.w3.org/2000/svg">
<path d="M276.121 0H57.879C29.5032 0 6.5 23.0032 6.5 51.379V269.621C6.5 297.997 29.5032 321 57.879 321H276.121C304.497 321 327.5 297.997 327.5 269.621V51.379C327.5 23.0032 304.497 0 276.121 0Z" fill="black"/>
<path d="M240.974 81.3322H172.064L171.588 106.87H243.874C264.78 106.87 277.896 116.393 277.896 137.17C277.896 151.41 270.191 167.469 241.017 167.469H210.198L210.977 122.236L6.5 90.7682V111.761L185.829 139.377V145.134H41.8204V165.911H185.353V170.456L6.58657 209.975V231.227L184.963 191.795V196.47L103.068 224.345L109.821 243.996L184.444 218.372L183.924 246.637H208.813L209.765 192.358H240.714C283.999 192.358 303.563 165.305 303.563 137.04C303.477 106.87 283.306 81.3322 240.974 81.3322Z" fill="white"/>
</svg>
