<svg width="167" height="48" viewBox="0 0 167 48" fill="none" xmlns="http://www.w3.org/2000/svg">
<path d="M40.3545 0H7.68997C3.44291 0 0 3.43972 0 7.68284V40.3172C0 44.5603 3.44291 48 7.68997 48H40.3545C44.6016 48 48.0445 44.5603 48.0445 40.3172V7.68284C48.0445 3.43972 44.6016 0 40.3545 0Z" fill="black"/>
<path d="M35.094 12.1618H24.7802L24.709 15.9805H35.528C38.6571 15.9805 40.6201 17.4045 40.6201 20.5113C40.6201 22.6407 39.467 25.042 35.1005 25.042H30.4878L30.6044 18.2783L0 13.5728V16.7119L26.8404 20.8414V21.7022H5.28645V24.809H26.7691V25.4886L0.0129573 31.398V34.576L26.7108 28.6796V29.3786L14.4535 33.5469L15.4642 36.4854L26.6331 32.6537L26.5553 36.8802H30.2805L30.423 28.7637H35.0551C41.5336 28.7637 44.4619 24.7184 44.4619 20.4919C44.4489 15.9805 41.4299 12.1618 35.094 12.1618Z" fill="white"/>
<path d="M114.656 32.1684C115.747 32.1536 116.834 32.019 117.895 31.7671L117.384 28.5309C116.49 28.7444 115.575 28.853 114.656 28.8545C112.298 28.8545 110.769 27.8642 110.769 25.0422L110.873 19.2493H117.507L117.565 16.0131H110.97L111.08 9.96777H107.517L107.245 24.9063C107.179 25.8923 107.317 26.8812 107.652 27.8112C107.986 28.7412 108.509 29.5922 109.188 30.3108C110.471 31.5988 112.369 32.1684 114.656 32.1684Z" fill="black"/>
<path d="M99.1012 19.2364H105.366L105.424 15.9743H95.551L95.2724 32.0131H98.881L99.1012 19.2364Z" fill="black"/>
<path d="M144.865 15.9743H148.428L148.15 32.0131H144.587L144.736 15.9807H144.865V15.9743ZM144.969 9.92893L144.904 13.5535H148.474L148.532 9.92893H144.969Z" fill="black"/>
<path d="M141.594 28.2526H137.836L137.771 32.0131H141.529L141.594 28.2526Z" fill="black"/>
<path d="M84.097 32.259C85.6528 32.3137 87.1745 31.7955 88.3728 30.8027H88.7292V32.0131H92.3895L92.6746 15.9742H88.9753V17.1587H88.6838C87.4662 16.1887 85.9523 15.6655 84.395 15.6765C79.9702 15.5988 76.2969 18.5568 76.2062 23.8254C76.1155 29.094 79.6722 32.259 84.097 32.259ZM79.8925 23.8448C79.8925 22.1684 80.5986 18.9904 84.5829 19.0616C87.861 19.1134 89.1567 21.2752 89.1179 24.0066C89.079 26.738 87.6991 28.8416 84.421 28.7898C80.4302 28.7315 79.8601 25.5276 79.8925 23.8577V23.8448Z" fill="black"/>
<path d="M66.8383 15.67C65.2832 15.6196 63.763 16.1373 62.5625 17.1264H62.2062V15.9225H58.5135L58.1118 38.7056H61.8046L61.9406 30.7704H62.2386C63.4565 31.7399 64.9702 32.263 66.5274 32.2526C70.9457 32.3302 74.619 29.3658 74.7097 24.0972C74.8004 18.8286 71.2631 15.67 66.8383 15.67ZM71.0494 24.0843C71.017 25.7542 70.3367 28.9386 66.3525 28.8674C63.0743 28.8092 61.7786 26.6539 61.8175 23.9225C61.8564 21.1911 63.2298 19.081 66.5079 19.1393C70.5052 19.204 71.0753 22.4079 71.0494 24.0778V24.0843Z" fill="black"/>
<path d="M126.518 32.259C128.062 32.3133 129.571 31.7945 130.755 30.8027H131.15V32.0131H134.843L135.122 15.9742H131.429V17.1587H131.131C129.915 16.1864 128.4 15.6629 126.842 15.6765C122.424 15.5988 118.75 18.5568 118.66 23.8254C118.569 29.094 122.093 32.259 126.518 32.259ZM122.307 23.8448C122.307 22.1684 123.02 18.9904 127.004 19.0616C130.282 19.1134 131.578 21.2752 131.539 24.0066C131.5 26.738 130.12 28.8416 126.842 28.7898C122.838 28.7315 122.281 25.5276 122.307 23.8577V23.8448Z" fill="black"/>
<path d="M158.47 32.259C163.005 32.3367 166.737 29.3723 166.827 24.1102C166.918 18.848 163.277 15.6959 158.762 15.6959C154.227 15.6183 150.502 18.5827 150.404 23.8513C150.307 29.1199 153.935 32.259 158.47 32.259ZM153.974 23.8448C153.974 22.1296 154.687 18.8675 158.703 18.9387C162.001 18.9969 163.31 21.2105 163.238 24.0131C163.167 26.8157 161.813 28.9775 158.509 28.9192C154.486 28.8286 153.935 25.5924 153.935 23.8513L153.974 23.8448Z" fill="black"/>
</svg>
