<svg width="34" height="34" viewBox="0 0 34 34" fill="none" xmlns="http://www.w3.org/2000/svg">
<g id="Group 3378">
<path id="Vector" d="M11.512 22.232L21.976 11.768M12.2 1H21.8C29.8 1 33 4.2 33 12.2V21.8C33 29.8 29.8 33 21.8 33H12.2C4.2 33 1 29.8 1 21.8V12.2C1 4.2 4.2 1 12.2 1Z" stroke="#757575" stroke-linecap="round" stroke-linejoin="round"/>
<path id="Vector_2" d="M12.168 14.3922C12.6899 14.3922 13.1905 14.1849 13.5595 13.8158C13.9286 13.4468 14.136 12.9462 14.136 12.4243C14.136 11.9023 13.9286 11.4017 13.5595 11.0327C13.1905 10.6636 12.6899 10.4562 12.168 10.4562C11.646 10.4562 11.1454 10.6636 10.7764 11.0327C10.4073 11.4017 10.2 11.9023 10.2 12.4243C10.2 12.9462 10.4073 13.4468 10.7764 13.8158C11.1454 14.1849 11.646 14.3922 12.168 14.3922ZM22.632 23.5442C23.1539 23.5442 23.6545 23.3369 24.0235 22.9678C24.3926 22.5988 24.5999 22.0982 24.5999 21.5762C24.5999 21.0543 24.3926 20.5537 24.0235 20.1847C23.6545 19.8156 23.1539 19.6083 22.632 19.6083C22.11 19.6083 21.6094 19.8156 21.2404 20.1847C20.8713 20.5537 20.664 21.0543 20.664 21.5762C20.664 22.0982 20.8713 22.5988 21.2404 22.9678C21.6094 23.3369 22.11 23.5442 22.632 23.5442Z" stroke="#757575" stroke-linecap="round" stroke-linejoin="round"/>
</g>
</svg>
