<svg width="40" height="40" viewBox="0 0 40 40" fill="none" xmlns="http://www.w3.org/2000/svg">
<g id="icons / other / figure">
<path id="Vector" d="M28.2833 20.4167V27.9167C28.2833 34.1667 25.7833 36.6667 19.5333 36.6667H12.0333C5.78333 36.6667 3.28333 34.1667 3.28333 27.9167V20.4167C3.28333 14.1667 5.78333 11.6667 12.0333 11.6667H19.5333C25.7833 11.6667 28.2833 14.1667 28.2833 20.4167Z" stroke="#757575" stroke-linecap="round" stroke-linejoin="round"/>
<path id="Vector_2" d="M36.6166 12.5C36.6166 17.2833 32.9666 21.2 28.2833 21.6167V20.4167C28.2833 14.1667 25.7833 11.6667 19.5333 11.6667H18.3333C18.75 6.98334 22.6666 3.33334 27.45 3.33334C32.1 3.33334 35.9333 6.78334 36.5166 11.2833C36.5833 11.6667 36.6166 12.0833 36.6166 12.5Z" stroke="#757575" stroke-linecap="round" stroke-linejoin="round"/>
</g>
</svg>
