<svg width="40" height="40" viewBox="0 0 40 40" fill="none" xmlns="http://www.w3.org/2000/svg">
<path fill-rule="evenodd" clip-rule="evenodd" d="M26.6667 5H13.3333C8.73096 5 5 8.73096 5 13.3333V26.6667C5 31.269 8.73096 35 13.3333 35H26.6667C31.269 35 35 31.269 35 26.6667V13.3333C35 8.73096 31.269 5 26.6667 5Z" stroke="#757575" stroke-linecap="round" stroke-linejoin="round"/>
<path fill-rule="evenodd" clip-rule="evenodd" d="M20.5014 19.431V16.1077C20.5014 15.4958 20.0056 15 19.3936 15C18.7816 15 18.2859 15.4958 18.2859 16.1077V22.5L16.3014 21.4815C15.8499 21.2498 15.3001 21.336 14.9416 21.6945C14.4669 22.1692 14.4894 22.9455 14.9904 23.3925L18.6091 26.6198C18.8844 26.8643 19.2391 27 19.6074 27H23.0821C23.7849 27 24.3939 26.5118 24.5461 25.8255L25.3509 22.203C25.5856 21.1455 24.8784 20.109 23.8081 19.9433L20.5014 19.431Z" stroke="#757575" stroke-linecap="round" stroke-linejoin="round"/>
<path d="M15.7148 15.75C15.7148 13.6793 17.3941 12 19.4648 12C21.5356 12 23.2148 13.6793 23.2148 15.75" stroke="#757575" stroke-linecap="round" stroke-linejoin="round"/>
</svg>
