<svg width="40" height="40" viewBox="0 0 40 40" fill="none" xmlns="http://www.w3.org/2000/svg">
<path d="M27.5789 32H12.4211C11.3768 32 10.4505 31.9657 9.62526 31.8457C5.19579 31.3486 4 29.2229 4 23.4286V16.5714C4 10.7771 5.19579 8.65143 9.62526 8.15429C10.4505 8.03429 11.3768 8 12.4211 8H27.5789C28.6232 8 29.5495 8.03429 30.3747 8.15429C34.8042 8.65143 36 10.7771 36 16.5714V23.4286C36 29.2229 34.8042 31.3486 30.3747 31.8457C29.5495 31.9657 28.6232 32 27.5789 32Z" stroke="#757575" stroke-linecap="round" stroke-linejoin="round"/>
<path fill-rule="evenodd" clip-rule="evenodd" d="M14 38C13.4475 38 13 37.5525 13 37C13 36.4475 13.4475 36 14 36C14.5525 36 15 36.4475 15 37C15 37.5525 14.5525 38 14 38Z" fill="#757575" stroke="#757575" stroke-linecap="round" stroke-linejoin="round"/>
<path fill-rule="evenodd" clip-rule="evenodd" d="M20 38C19.4475 38 19 37.5525 19 37C19 36.4475 19.4475 36 20 36C20.5525 36 21 36.4475 21 37C21 37.5525 20.5525 38 20 38Z" fill="#757575" stroke="#757575" stroke-linecap="round" stroke-linejoin="round"/>
<path fill-rule="evenodd" clip-rule="evenodd" d="M26 38C25.4475 38 25 37.5525 25 37C25 36.4475 25.4475 36 26 36C26.5525 36 27 36.4475 27 37C27 37.5525 26.5525 38 26 38Z" fill="#757575" stroke="#757575" stroke-linecap="round" stroke-linejoin="round"/>
</svg>
