<svg width="31" height="31" viewBox="0 0 31 31" fill="none" xmlns="http://www.w3.org/2000/svg">
<g id="Group">
<path id="Path" d="M0.5 12.5006H21.5" stroke="#757575" stroke-width="0.9" stroke-linecap="round" stroke-linejoin="round"/>
<path id="Path_2" d="M14 3.5H5C2.51472 3.5 0.5 5.51472 0.5 8V26C0.5 28.4853 2.51472 30.5 5 30.5H23C25.4853 30.5 27.5 28.4853 27.5 26V17" stroke="#757575" stroke-width="0.9" stroke-linecap="round" stroke-linejoin="round"/>
<path id="Path_3" d="M0.5 21.5006H27.5" stroke="#757575" stroke-width="0.9" stroke-linecap="round" stroke-linejoin="round"/>
<path id="Path_4" d="M18.41 30.5006V9.50062" stroke="#757575" stroke-width="0.9" stroke-linecap="round" stroke-linejoin="round"/>
<path id="Path_5" d="M9.40997 30.5V3.5" stroke="#757575" stroke-width="0.9" stroke-linecap="round" stroke-linejoin="round"/>
<path id="Path_6" d="M27.5 12.5V6.5C27.5 4.84315 26.1569 3.5 24.5 3.5H18.5" stroke="#757575" stroke-width="0.9" stroke-linecap="round" stroke-linejoin="round"/>
<path id="Path_7" d="M18.5 3.5L20.75 5.75" stroke="#757575" stroke-width="0.9" stroke-linecap="round" stroke-linejoin="round"/>
<path id="Path_8" d="M20.75 1.25L18.5 3.5" stroke="#757575" stroke-width="0.9" stroke-linecap="round" stroke-linejoin="round"/>
<path id="Path_9" d="M27.5 12.5L29.75 10.25" stroke="#757575" stroke-width="0.9" stroke-linecap="round" stroke-linejoin="round"/>
<path id="Path_10" d="M25.25 10.25L27.5 12.5" stroke="#757575" stroke-width="0.9" stroke-linecap="round" stroke-linejoin="round"/>
</g>
</svg>
