<svg width="32" height="32" viewBox="0 0 32 32" fill="none" xmlns="http://www.w3.org/2000/svg">
<g id="Group">
<path id="Path" fill-rule="evenodd" clip-rule="evenodd" d="M27.59 31H4.40999C2.56833 31 1.07666 29.5083 1.07666 27.6667V14.3333C1.07666 12.4917 2.56833 11 4.40999 11H27.59C29.4317 11 30.9233 12.4917 30.9233 14.3333V27.6667C30.9233 29.5083 29.43 31 27.59 31Z" stroke="#757575" stroke-linecap="round" stroke-linejoin="round"/>
<path id="Path_2" d="M3.96997 11V9.33333C3.96997 7.49167 5.46164 6 7.3033 6H24.695C26.5366 6 28.0283 7.49167 28.0283 9.33333V11" stroke="#757575" stroke-linecap="round" stroke-linejoin="round"/>
<path id="Path_3" d="M6.85999 6V4.33333C6.85999 2.49167 8.35165 1 10.1933 1H21.8083C23.65 1 25.1417 2.49167 25.1417 4.33333V6" stroke="#757575" stroke-linecap="round" stroke-linejoin="round"/>
<path id="Path_4" d="M16 16V26" stroke="#757575" stroke-linecap="round" stroke-linejoin="round"/>
<path id="Path_5" d="M20.8334 20.8333H11.1667" stroke="#757575" stroke-linecap="round" stroke-linejoin="round"/>
</g>
</svg>
