<svg width="40" height="40" viewBox="0 0 40 40" fill="none" xmlns="http://www.w3.org/2000/svg">
<path d="M15.2 4H24.8C32.8 4 36 7.2 36 15.2V24.8C36 32.8 32.8 36 24.8 36H15.2C7.2 36 4 32.8 4 24.8V15.2C4 7.2 7.2 4 15.2 4Z" stroke="#757575" stroke-linecap="round" stroke-linejoin="round"/>
<path fill-rule="evenodd" clip-rule="evenodd" d="M14.568 15.0487C14.1848 14.7932 13.7236 14.7853 13.3852 14.7853C13.1643 14.7853 12.9852 14.6062 12.9852 14.3853C12.9852 14.1644 13.1643 13.9853 13.3852 13.9853L13.4033 13.9853C13.7333 13.9852 14.4146 13.9849 15.0118 14.383C15.2816 14.5629 15.5169 14.8106 15.6988 15.1421C15.8808 14.8106 16.116 14.5629 16.3859 14.383C16.9831 13.9849 17.6643 13.9852 17.9943 13.9853L18.0124 13.9853C18.2333 13.9853 18.4124 14.1644 18.4124 14.3853C18.4124 14.6062 18.2333 14.7853 18.0124 14.7853C17.674 14.7853 17.2128 14.7932 16.8296 15.0487C16.4794 15.2821 16.0988 15.7939 16.0988 17.0294V20.6651V20.6651V24.1093C16.0988 25.2665 16.4731 25.743 16.8213 25.963C17.2073 26.2067 17.6733 26.2143 18.0124 26.2143C18.2333 26.2143 18.4124 26.3934 18.4124 26.6143C18.4124 26.8352 18.2333 27.0143 18.0124 27.0143L17.9941 27.0143C17.6649 27.0144 16.9885 27.0147 16.3942 26.6394C16.1213 26.4671 15.8829 26.2283 15.6988 25.9076C15.5147 26.2283 15.2763 26.4671 15.0035 26.6394C14.4092 27.0147 13.7328 27.0144 13.4036 27.0143L13.3852 27.0143C13.1643 27.0143 12.9852 26.8352 12.9852 26.6143C12.9852 26.3934 13.1643 26.2143 13.3852 26.2143C13.7244 26.2143 14.1903 26.2067 14.5763 25.963C14.9245 25.743 15.2988 25.2665 15.2988 24.1093V20.6651V20.6651V17.0294C15.2988 15.7939 14.9182 15.2821 14.568 15.0487Z" fill="#757575"/>
<circle cx="22.4" cy="26.4" r="0.4" fill="#757575"/>
<circle cx="23.7" cy="26.4" r="0.4" fill="#757575"/>
<circle cx="25" cy="26.4" r="0.4" fill="#757575"/>
</svg>
