<svg width="40" height="40" viewBox="0 0 40 40" fill="none" xmlns="http://www.w3.org/2000/svg">
<path fill-rule="evenodd" clip-rule="evenodd" d="M31.6667 36.6666H8.33333C6.49167 36.6666 5 35.175 5 33.3333V6.66665C5 4.82498 6.49167 3.33331 8.33333 3.33331H31.6667C33.5083 3.33331 35 4.82498 35 6.66665V33.3333C35 35.175 33.5083 36.6666 31.6667 36.6666Z" stroke="#757575" stroke-linecap="round" stroke-linejoin="round"/>
<path d="M30 27H10" stroke="#757575" stroke-linecap="round" stroke-linejoin="round"/>
<path d="M18.2102 30.8333H10" stroke="#757575" stroke-linecap="round" stroke-linejoin="round"/>
<path fill-rule="evenodd" clip-rule="evenodd" d="M13.1776 15.8833L15.1825 16.9364C15.573 17.1417 16.0289 16.8097 15.9543 16.3752L15.5717 14.1424L17.194 12.5628C17.5099 12.2549 17.3353 11.719 16.8994 11.655L14.6573 11.3298L13.6548 9.29693C13.4602 8.90102 12.895 8.90102 12.7004 9.29693L11.698 11.3298L9.45587 11.6563C9.01998 11.719 8.84535 12.2562 9.16127 12.5641L10.7835 14.1437L10.401 16.3765C10.3263 16.8111 10.7822 17.143 11.1728 16.9377L13.1776 15.8833Z" stroke="#757575" stroke-linecap="round" stroke-linejoin="round"/>
</svg>
