<svg width="32" height="32" viewBox="0 0 32 32" fill="none" xmlns="http://www.w3.org/2000/svg">
<g id="Group">
<path id="Path" d="M1 5L2 11.0021L4.5 10.001L7 9" stroke="#757575" stroke-linecap="round" stroke-linejoin="round"/>
<path id="Path_2" d="M1.09131 17.6673C1.93964 25.1579 8.21982 30.8526 15.7574 30.9662C23.295 31.0797 29.7439 25.5768 30.8175 18.1152C31.8911 10.6536 27.2552 3.55575 19.9914 1.53964C12.7275 -0.476467 5.09659 3.21667 2.17087 10.1642" stroke="#757575" stroke-linecap="round" stroke-linejoin="round"/>
<path id="Path_3" d="M12.6636 19.3347L19.333 12.6653" stroke="#757575" stroke-linecap="round" stroke-linejoin="round"/>
<g id="Path_4">
<mask id="path-4-outside-1_1239_1374" maskUnits="userSpaceOnUse" x="17.7095" y="17.7094" width="4" height="4" fill="black">
<rect fill="white" x="17.7095" y="17.7094" width="4" height="4"/>
<path fill-rule="evenodd" clip-rule="evenodd" d="M19.7516 19.5431C19.7516 19.6582 19.6583 19.7515 19.5432 19.7515C19.428 19.7515 19.3347 19.6582 19.3347 19.5431C19.3347 19.428 19.428 19.3347 19.5432 19.3347C19.5985 19.3345 19.6516 19.3564 19.6908 19.3955C19.7299 19.4346 19.7518 19.4878 19.7516 19.5431Z"/>
</mask>
<path d="M20.7516 19.5431C20.7516 18.9908 20.3039 18.5431 19.7516 18.5431C19.1993 18.5431 18.7516 18.9908 18.7516 19.5431H20.7516ZM19.5432 19.3347V20.3347L19.5469 20.3347L19.5432 19.3347ZM19.6908 19.3955L18.9836 20.1026L18.9836 20.1026L19.6908 19.3955ZM18.7516 19.5394C18.7495 20.0917 19.1956 20.541 19.7479 20.5431C20.3002 20.5451 20.7495 20.0991 20.7516 19.5468L18.7516 19.5394ZM18.7516 19.5431C18.7516 19.1059 19.106 18.7515 19.5432 18.7515V20.7515C20.2105 20.7515 20.7516 20.2105 20.7516 19.5431H18.7516ZM19.5432 18.7515C19.9803 18.7515 20.3347 19.1059 20.3347 19.5431H18.3347C18.3347 20.2105 18.8758 20.7515 19.5432 20.7515V18.7515ZM20.3347 19.5431C20.3347 19.9803 19.9803 20.3347 19.5432 20.3347V18.3347C18.8758 18.3347 18.3347 18.8757 18.3347 19.5431H20.3347ZM19.5469 20.3347C19.3357 20.3354 19.133 20.2519 18.9836 20.1026L20.3979 18.6884C20.1703 18.4608 19.8613 18.3335 19.5395 18.3347L19.5469 20.3347ZM18.9836 20.1026C18.8343 19.9533 18.7508 19.7506 18.7516 19.5394L20.7516 19.5468C20.7528 19.225 20.6254 18.916 20.3979 18.6884L18.9836 20.1026Z" fill="#757575" mask="url(#path-4-outside-1_1239_1374)"/>
</g>
<g id="Path_5">
<mask id="path-6-outside-2_1239_1374" maskUnits="userSpaceOnUse" x="10.6233" y="10.6231" width="4" height="4" fill="black">
<rect fill="white" x="10.6233" y="10.6231" width="4" height="4"/>
<path fill-rule="evenodd" clip-rule="evenodd" d="M12.2486 12.4568C12.2486 12.3417 12.3419 12.2484 12.457 12.2484C12.5721 12.2484 12.6654 12.3417 12.6654 12.4568C12.6654 12.5719 12.5721 12.6652 12.457 12.6652C12.4016 12.6654 12.3485 12.6436 12.3094 12.6044C12.2702 12.5653 12.2483 12.5122 12.2486 12.4568Z"/>
</mask>
<path d="M11.2486 12.4568C11.2486 13.0091 11.6963 13.4568 12.2486 13.4568C12.8008 13.4568 13.2486 13.0091 13.2486 12.4568H11.2486ZM12.457 12.6652V11.6652L12.4533 11.6652L12.457 12.6652ZM13.2485 12.4605C13.2506 11.9082 12.8045 11.4589 12.2523 11.4568C11.7 11.4548 11.2506 11.9008 11.2486 12.4531L13.2485 12.4605ZM13.2486 12.4568C13.2486 12.894 12.8942 13.2484 12.457 13.2484V11.2484C11.7896 11.2484 11.2486 11.7894 11.2486 12.4568H13.2486ZM12.457 13.2484C12.0198 13.2484 11.6654 12.894 11.6654 12.4568H13.6654C13.6654 11.7894 13.1244 11.2484 12.457 11.2484V13.2484ZM11.6654 12.4568C11.6654 12.0196 12.0198 11.6652 12.457 11.6652V13.6652C13.1244 13.6652 13.6654 13.1242 13.6654 12.4568H11.6654ZM12.4533 11.6652C12.6644 11.6645 12.8672 11.748 13.0165 11.8973L11.6023 13.3115C11.8298 13.5391 12.1388 13.6664 12.4607 13.6652L12.4533 11.6652ZM13.0165 11.8973C13.1658 12.0466 13.2493 12.2494 13.2485 12.4605L11.2486 12.4531C11.2474 12.775 11.3747 13.084 11.6023 13.3115L13.0165 11.8973Z" fill="#757575" mask="url(#path-6-outside-2_1239_1374)"/>
</g>
</g>
</svg>
